<?xml version="1.0" encoding="UTF-8"?><svg xmlns="http://www.w3.org/2000/svg" xmlns:xlink="http://www.w3.org/1999/xlink" height="266.0" preserveAspectRatio="xMidYMid meet" version="1.0" viewBox="-0.0 0.0 266.0 266.0" width="266.0" zoomAndPan="magnify"><g id="change1_1"><path d="M133.006,81.3a71.108,71.108,0,0,0,51.7,51.7,71.108,71.108,0,0,0-51.7,51.7,71.108,71.108,0,0,0-51.7-51.7,71.108,71.108,0,0,0,51.7-51.7m0-81.3c0,29.97-1.274,53.186-3.244,71.171a66.163,66.163,0,0,1-58.591,58.591c-17.985,1.97-41.2,3.244-71.171,3.244,29.97,0,53.186,1.274,71.171,3.245a66.161,66.161,0,0,1,58.591,58.59c1.97,17.985,3.244,41.2,3.244,71.171,0-29.97,1.274-53.186,3.244-71.171a66.161,66.161,0,0,1,58.591-58.59c17.985-1.971,41.2-3.245,71.171-3.245-29.97,0-53.186-1.274-71.171-3.244A66.163,66.163,0,0,1,136.25,71.171c-1.97-17.985-3.244-41.2-3.244-71.171Z" fill="#231f20"/></g></svg>