<?xml version="1.0" encoding="UTF-8"?><svg xmlns="http://www.w3.org/2000/svg" xmlns:xlink="http://www.w3.org/1999/xlink" height="383.9" preserveAspectRatio="xMidYMid meet" version="1.0" viewBox="0.0 0.0 356.8 383.9" width="356.8" zoomAndPan="magnify"><defs><clipPath id="a"><path d="M 321 0 L 356.828125 0 L 356.828125 38 L 321 38 Z M 321 0"/></clipPath><clipPath id="b"><path d="M 320 0 L 356.828125 0 L 356.828125 38 L 320 38 Z M 320 0"/></clipPath><clipPath id="c"><path d="M 20 345 L 57 345 L 57 383.859375 L 20 383.859375 Z M 20 345"/></clipPath><clipPath id="d"><path d="M 20 345 L 58 345 L 58 383.859375 L 20 383.859375 Z M 20 345"/></clipPath></defs><g><g id="change1_1"><path d="M 25.722656 139.140625 C 28.949219 156.613281 28.160156 158.074219 12.164062 164.257812 C 28.917969 160.890625 30.316406 161.714844 36.25 178.398438 C 33.023438 160.925781 33.808594 159.464844 49.808594 153.28125 C 33.054688 156.648438 31.652344 155.824219 25.722656 139.140625" fill="#c7c4c6"/></g><g id="change2_1"><path d="M 23.296875 162.175781 C 29.253906 162.175781 31.644531 164.972656 34.832031 173.113281 C 33.117188 161.894531 34.707031 159.023438 44.886719 154.714844 C 34.042969 156.535156 31.253906 154.9375 27.140625 144.425781 C 28.855469 155.644531 27.265625 158.515625 17.085938 162.824219 C 19.53125 162.414062 21.566406 162.175781 23.296875 162.175781 Z M 35.777344 178.566406 C 29.914062 162.066406 28.8125 161.421875 12.261719 164.75 L 11.984375 163.792969 C 27.804688 157.675781 28.425781 156.527344 25.230469 139.234375 L 26.195312 138.976562 C 32.058594 155.46875 33.15625 156.117188 49.710938 152.789062 L 49.988281 153.746094 C 34.164062 159.863281 33.546875 161.011719 36.742188 178.308594 L 35.777344 178.566406" fill="#979497"/></g><g id="change1_2"><path d="M 129.933594 215.851562 C 134.1875 233.078125 133.488281 234.589844 117.882812 241.789062 C 134.40625 237.355469 135.855469 238.085938 142.757812 254.355469 C 138.507812 237.125 139.207031 235.617188 154.808594 228.414062 C 138.285156 232.851562 136.839844 232.121094 129.933594 215.851562" fill="#c7c4c6"/></g><g id="change2_2"><path d="M 129.9375 238.960938 C 135.136719 238.960938 137.597656 241.742188 141.035156 249.179688 C 138.65625 238.085938 140.070312 235.117188 149.972656 230.164062 C 139.265625 232.679688 136.386719 231.257812 131.660156 221.023438 C 134.035156 232.117188 132.621094 235.085938 122.71875 240.039062 C 125.644531 239.351562 127.984375 238.960938 129.9375 238.960938 Z M 142.296875 254.550781 C 135.472656 238.464844 134.339844 237.890625 118.015625 242.269531 L 117.675781 241.335938 C 133.109375 234.214844 133.660156 233.027344 129.449219 215.96875 L 130.394531 215.65625 C 137.21875 231.738281 138.355469 232.3125 154.679688 227.933594 L 155.019531 228.871094 C 139.585938 235.992188 139.035156 237.175781 143.242188 254.234375 L 142.296875 254.550781" fill="#979497"/></g><g id="change1_3"><path d="M 24.03125 226.953125 C 18.363281 243.734375 16.976562 244.585938 0.171875 241.503906 C 16.265625 247.414062 17.078125 248.859375 14.125 266.386719 C 19.792969 249.601562 21.179688 248.757812 37.984375 251.835938 C 21.890625 245.925781 21.082031 244.476562 24.03125 226.953125" fill="#c7c4c6"/></g><g id="change2_3"><path d="M 5.117188 242.855469 C 15.363281 246.988281 16.996094 249.828125 15.460938 261.078125 C 19.410156 250.496094 22.171875 248.851562 33.039062 250.484375 C 22.792969 246.351562 21.160156 243.511719 22.699219 232.261719 C 18.746094 242.84375 15.988281 244.488281 5.117188 242.855469 Z M 14.597656 266.546875 L 13.632812 266.300781 C 16.554688 248.953125 15.917969 247.816406 0 241.972656 L 0.261719 241.011719 C 16.863281 244.054688 17.953125 243.390625 23.558594 226.796875 L 24.527344 227.039062 C 21.601562 244.386719 22.238281 245.523438 38.15625 251.367188 L 37.894531 252.328125 C 21.292969 249.285156 20.203125 249.949219 14.597656 266.546875" fill="#979497"/></g><g id="change1_4"><path d="M 247.109375 18.96875 C 242.882812 36.207031 241.574219 37.179688 224.574219 35.65625 C 241.105469 40.0625 242.035156 41.429688 240.574219 59.15625 C 244.800781 41.917969 246.113281 40.949219 263.113281 42.472656 C 246.582031 38.0625 245.652344 36.695312 247.109375 18.96875" fill="#c7c4c6"/></g><g id="change2_4"><path d="M 229.605469 36.546875 C 240.164062 39.71875 242.035156 42.398438 241.457031 53.742188 C 244.496094 42.839844 247.101562 40.949219 258.078125 41.582031 C 247.519531 38.40625 245.648438 35.726562 246.230469 24.382812 C 243.191406 35.285156 240.574219 37.179688 229.605469 36.546875 Z M 241.0625 59.277344 L 240.078125 59.117188 C 241.519531 41.570312 240.789062 40.496094 224.445312 36.140625 L 224.617188 35.15625 C 241.414062 36.660156 242.441406 35.902344 246.625 18.851562 L 247.609375 19.011719 C 246.164062 36.558594 246.894531 37.628906 263.242188 41.988281 L 263.066406 42.96875 C 246.269531 41.464844 245.242188 42.226562 241.0625 59.277344" fill="#979497"/></g><g clip-path="url(#a)" id="change1_10"><path d="M 330.5625 0.246094 C 336.539062 16.910156 335.996094 18.488281 321.210938 27.367188 C 337.191406 21.136719 338.703125 21.703125 347.222656 37.121094 C 341.242188 20.453125 341.785156 18.878906 356.570312 9.996094 C 340.589844 16.230469 339.078125 15.660156 330.5625 0.246094" fill="#c7c4c6"/></g><g clip-path="url(#b)" id="change2_10"><path d="M 334.269531 23.148438 C 338.59375 23.148438 341.191406 25.789062 344.984375 32.175781 C 341.492188 21.398438 342.589844 18.289062 351.929688 12.277344 C 341.539062 15.949219 338.539062 14.847656 332.796875 5.191406 C 336.289062 15.96875 335.191406 19.074219 325.855469 25.089844 C 329.375 23.84375 332.050781 23.148438 334.269531 23.148438 Z M 346.785156 37.363281 C 338.363281 22.121094 337.179688 21.675781 321.394531 27.835938 L 320.953125 26.941406 C 335.582031 18.152344 336.011719 16.914062 330.089844 0.414062 L 331 0.00390625 C 339.417969 15.242188 340.605469 15.6875 356.390625 9.53125 L 356.828125 10.425781 C 342.199219 19.210938 341.773438 20.449219 347.691406 36.949219 L 346.785156 37.363281" fill="#979497"/></g><g id="change1_5"><path d="M 124.242188 130.558594 C 116.472656 146.398438 114.988281 147.042969 98.730469 141.648438 C 113.917969 149.75 114.535156 151.296875 109.363281 168.25 C 117.132812 152.410156 118.617188 151.765625 134.875 157.164062 C 119.683594 149.058594 119.066406 147.511719 124.242188 130.558594" fill="#c7c4c6"/></g><g id="change2_5"><path d="M 103.46875 143.679688 C 113.085938 149.203125 114.335938 152.246094 111.359375 163.191406 C 116.636719 153.25 119.585938 152 130.136719 155.128906 C 120.515625 149.605469 119.269531 146.5625 122.242188 135.617188 C 116.96875 145.558594 114.019531 146.808594 103.46875 143.679688 Z M 109.8125 168.472656 L 108.882812 168.105469 C 114.007812 151.320312 113.523438 150.105469 98.492188 142.085938 L 98.886719 141.171875 C 114.945312 146.503906 116.109375 145.996094 123.792969 130.339844 L 124.71875 130.703125 C 119.597656 147.488281 120.082031 148.707031 135.109375 156.722656 L 134.71875 157.636719 C 118.660156 152.308594 117.492188 152.8125 109.8125 168.472656" fill="#979497"/></g><g id="change1_6"><path d="M 227.632812 185.933594 C 229.632812 203.601562 228.746094 205 212.359375 209.957031 C 229.304688 207.867188 230.644531 208.796875 235.394531 225.882812 C 233.394531 208.214844 234.28125 206.816406 250.671875 201.859375 C 233.726562 203.949219 232.386719 203.019531 227.632812 185.933594" fill="#c7c4c6"/></g><g id="change2_6"><path d="M 221.820312 208.660156 C 229.136719 208.660156 231.492188 211.351562 234.351562 220.503906 C 233.421875 209.183594 235.207031 206.441406 245.664062 202.917969 C 234.722656 203.910156 232.050781 202.109375 228.679688 191.316406 C 229.605469 202.632812 227.820312 205.375 217.363281 208.898438 C 219.03125 208.75 220.507812 208.660156 221.820312 208.660156 Z M 234.914062 226.015625 C 230.214844 209.117188 229.164062 208.390625 212.421875 210.453125 L 212.214844 209.480469 C 228.421875 204.578125 229.117188 203.480469 227.136719 185.988281 L 228.113281 185.800781 C 232.8125 202.699219 233.871094 203.425781 250.609375 201.363281 L 250.8125 202.339844 C 234.609375 207.238281 233.910156 208.335938 235.894531 225.828125 L 234.914062 226.015625" fill="#979497"/></g><g id="change1_7"><path d="M 235.210938 91.734375 C 224.550781 105.628906 222.972656 105.949219 208.082031 97.265625 C 221.40625 108.378906 221.714844 110.023438 213.386719 125.550781 C 224.042969 111.65625 225.621094 111.335938 240.511719 120.023438 C 227.1875 108.90625 226.882812 107.261719 235.210938 91.734375" fill="#c7c4c6"/></g><g id="change2_7"><path d="M 212.359375 100.265625 C 220.707031 107.679688 221.328125 110.925781 216.304688 121.035156 C 223.386719 112.386719 226.515625 111.761719 236.234375 117.023438 C 227.890625 109.609375 227.265625 106.363281 232.292969 96.246094 C 225.210938 104.902344 222.078125 105.523438 212.359375 100.265625 Z M 213.78125 125.855469 L 212.945312 125.316406 C 221.191406 109.941406 220.949219 108.648438 207.761719 97.648438 L 208.335938 96.832031 C 223.042969 105.414062 224.28125 105.160156 234.8125 91.429688 L 235.648438 91.96875 C 227.402344 107.34375 227.644531 108.636719 240.835938 119.636719 L 240.261719 120.453125 C 225.554688 111.875 224.316406 112.125 213.78125 125.855469" fill="#979497"/></g><g id="change1_8"><path d="M 159.390625 48.144531 C 162.269531 65.679688 161.453125 67.125 145.335938 72.960938 C 162.152344 69.957031 163.535156 70.8125 169.132812 87.617188 C 166.253906 70.082031 167.070312 68.636719 183.191406 62.800781 C 166.371094 65.804688 164.988281 64.949219 159.390625 48.144531" fill="#c7c4c6"/></g><g id="change2_8"><path d="M 156.074219 71.117188 C 162.351562 71.117188 164.722656 73.898438 167.820312 82.304688 C 166.332031 71.050781 167.976562 68.214844 178.238281 64.128906 C 167.363281 65.714844 164.605469 64.058594 160.703125 53.457031 C 162.191406 64.714844 160.550781 67.546875 150.285156 71.632812 C 152.535156 71.304688 154.4375 71.117188 156.074219 71.117188 Z M 168.65625 87.777344 C 163.121094 71.15625 162.035156 70.488281 145.421875 73.453125 L 145.164062 72.492188 C 161.105469 66.71875 161.746094 65.585938 158.898438 48.226562 L 159.863281 47.984375 C 165.398438 64.605469 166.484375 65.277344 183.101562 62.308594 L 183.359375 63.273438 C 167.417969 69.042969 166.777344 70.179688 169.625 87.539062 L 168.65625 87.777344" fill="#979497"/></g><g id="change1_9"><path d="M 201.144531 314.515625 C 185.414062 321.402344 183.878906 320.898438 174.789062 305.839844 C 181.390625 322.246094 180.90625 323.847656 166.46875 333.328125 C 182.199219 326.441406 183.734375 326.945312 192.824219 342.003906 C 186.222656 325.597656 186.710938 323.996094 201.144531 314.515625" fill="#c7c4c6"/></g><g id="change2_9"><path d="M 179.769531 328.566406 C 183.855469 328.566406 186.503906 331.136719 190.40625 337.160156 C 186.507812 326.53125 187.488281 323.378906 196.589844 316.984375 C 186.351562 321.082031 183.308594 320.105469 177.207031 310.6875 C 181.105469 321.316406 180.128906 324.464844 171.023438 330.859375 C 174.714844 329.382812 177.472656 328.566406 179.769531 328.566406 Z M 192.398438 342.261719 C 183.410156 327.382812 182.207031 326.984375 166.667969 333.785156 L 166.191406 332.910156 C 180.480469 323.527344 180.859375 322.269531 174.324219 306.027344 L 175.214844 305.582031 C 184.199219 320.464844 185.402344 320.859375 200.945312 314.058594 L 201.421875 314.933594 C 187.132812 324.316406 186.753906 325.574219 193.289062 341.816406 L 192.398438 342.261719" fill="#979497"/></g><g clip-path="url(#c)" id="change1_11"><path d="M 31.457031 345.722656 C 36.386719 362.757812 35.746094 364.296875 20.441406 372.15625 C 36.773438 367.015625 38.25 367.683594 45.789062 383.644531 C 40.859375 366.613281 41.5 365.074219 56.804688 357.210938 C 40.472656 362.351562 38.996094 361.683594 31.457031 345.722656" fill="#c7c4c6"/></g><g clip-path="url(#d)" id="change2_11"><path d="M 32.953125 368.800781 C 37.765625 368.800781 40.277344 371.542969 43.863281 378.554688 C 41.050781 367.566406 42.34375 364.539062 52.039062 359.167969 C 41.445312 362.132812 38.511719 360.839844 33.382812 350.816406 C 36.195312 361.804688 34.90625 364.828125 25.207031 370.203125 C 28.394531 369.308594 30.886719 368.800781 32.953125 368.800781 Z M 45.339844 383.859375 C 37.882812 368.078125 36.726562 367.554688 20.589844 372.636719 L 20.210938 371.714844 C 35.351562 363.933594 35.855469 362.726562 30.976562 345.863281 L 31.90625 345.507812 C 39.363281 361.289062 40.519531 361.8125 56.65625 356.734375 L 57.035156 357.65625 C 41.894531 365.433594 41.390625 366.640625 46.269531 383.507812 L 45.339844 383.859375" fill="#979497"/></g></g></svg>