<?xml version="1.0" encoding="UTF-8" standalone="no"?><svg xmlns="http://www.w3.org/2000/svg" xmlns:xlink="http://www.w3.org/1999/xlink" fill="#5d8eae" height="668.6" preserveAspectRatio="xMidYMid meet" version="1" viewBox="46.3 34.6 625.6 668.6" width="625.6" zoomAndPan="magnify"><g><g id="change1_12"><path d="M351 98L360.1 96.2 351 94.2 353.8 89.9 349.5 92.8 347.6 83.4 345.9 92.8 341.5 90 344.1 94.5 335.2 96 344 97.9 341.4 102.2 345.9 99.4 347.8 108.6 349.5 99.6 354.1 102.4z" fill="#171717"/></g><g id="change2_1"><path d="M54.6,273.7l0.5,3.7c0,0.2,0.1,0.3,0.2,0.5c0.1,0.1,0.3,0.2,0.5,0.2l3.7,0.5l-3.7,0.5c-0.4,0-0.6,0.3-0.7,0.7l-0.5,3.7 l-0.5-3.7c0-0.2-0.1-0.3-0.2-0.4c-0.1-0.1-0.3-0.2-0.5-0.2l-3.7-0.5l3.7-0.5c0.4,0,0.6-0.3,0.7-0.7L54.6,273.7z"/></g><g id="change2_4"><path d="M657.5,373.2l0.5,3.7c0,0.2,0.1,0.3,0.2,0.5c0.1,0.1,0.3,0.2,0.5,0.2l3.7,0.5l-3.7,0.5c-0.4,0-0.6,0.3-0.7,0.7l-0.5,3.7 l-0.5-3.7c0-0.2-0.1-0.3-0.2-0.4c-0.1-0.1-0.3-0.2-0.5-0.2l-3.7-0.5l3.7-0.5c0.4,0,0.6-0.3,0.7-0.7L657.5,373.2z"/></g><g><g><g id="change1_31"><path d="M195.5,616.8c-0.1,10.3-0.3,10.6-9.2,10.9c8.9,0.2,9.1,0.4,9.4,10.7c0.1-10.3,0.3-10.6,9.2-10.9 C196.1,627.4,195.9,627.1,195.5,616.8" fill="#171717"/></g></g></g><g><g><g id="change1_16"><path d="M439.2,640.3c-0.2,11.4-0.4,11.6-10.1,12c9.8,0.2,10,0.5,10.4,11.8c0.2-11.4,0.4-11.6,10.1-12 C439.8,651.9,439.6,651.6,439.2,640.3" fill="#171717"/></g></g></g><g><g><g id="change1_33"><path d="M643.9,525.9c-0.1,9.2-0.3,9.4-8.2,9.7c7.9,0.2,8.1,0.4,8.4,9.5c0.1-9.2,0.3-9.4,8.2-9.7 C644.4,535.3,644.2,535.1,643.9,525.9" fill="#171717"/></g></g></g><g><g><g id="change1_34"><path d="M638,450c-0.1,7.6-0.2,7.8-6.8,8c6.5,0.1,6.7,0.3,6.9,7.9c0.1-7.6,0.2-7.8,6.8-8 C638.4,457.8,638.3,457.6,638,450" fill="#171717"/></g></g></g><g><g><g id="change1_26"><path d="M548,575.1c-0.1,7.6-0.2,7.8-6.8,8.1c6.6,0.1,6.7,0.3,7,7.9c0.1-7.6,0.2-7.8,6.8-8.1 C548.4,582.9,548.2,582.7,548,575.1" fill="#171717"/></g></g></g><g><g><g id="change1_6"><path d="M526.9,668.8c-0.1,7.6-0.2,7.8-6.8,8.1c6.6,0.1,6.7,0.3,7,7.9c0.1-7.6,0.2-7.8,6.8-8.1 C527.3,676.6,527.2,676.5,526.9,668.8" fill="#171717"/></g></g></g><g><g><g id="change1_27"><path d="M148.5,203.7c-10.8,2-12.5,3.6-14.4,14.4c-2-10.8-3.6-12.5-14.4-14.4c10.8-2,12.5-3.6,14.4-14.4 C136,200.1,137.7,201.7,148.5,203.7z" fill="#171717"/></g></g></g><g><g><g id="change1_35"><path d="M595.1,558.5c-8,1.5-9.2,2.7-10.7,10.7c-1.5-8-2.7-9.2-10.7-10.7c8-1.5,9.2-2.7,10.7-10.7 C585.9,555.8,587.1,557,595.1,558.5z" fill="#171717"/></g></g></g><g><g><g id="change1_13"><path d="M334.3,658.2c-4.3,0.8-4.9,1.4-5.7,5.7c-0.8-4.3-1.4-4.9-5.7-5.7c4.3-0.8,4.9-1.4,5.7-5.7 C329.3,656.8,330,657.4,334.3,658.2z" fill="#171717"/></g></g></g><g><g><g id="change1_25"><path d="M108.9,154c-7.6,1.4-8.7,2.5-10.1,10.1c-1.4-7.6-2.5-8.7-10.1-10.1c7.6-1.4,8.7-2.5,10.1-10.1 C100.1,151.4,101.3,152.6,108.9,154z" fill="#171717"/></g></g></g><g id="change1_14"><path d="M433.3,67.2l3.3-1.9l-3.7,0.9l1.5-5.8l-3.1,5.2l-1.9-3.3l0.9,3.7l-5.8-1.5l5.2,3.1l-3.3,1.9l3.7-0.9l-1.5,5.8 l3.1-5.2l1.9,3.3l-0.9-3.7l5.8,1.5L433.3,67.2z" fill="#171717"/></g><g id="change1_18"><path d="M497.7,110.1l2.7-1.6l-3,0.7l1.2-4.7l-2.5,4.2l-1.6-2.7l0.7,3l-4.7-1.2l4.2,2.5l-2.7,1.6l3-0.7l-1.2,4.7 l2.5-4.2l1.6,2.7l-0.7-3l4.7,1.2L497.7,110.1z" fill="#171717"/></g><g><g><g id="change1_8"><path d="M653.4,421.6c-4.8,0.9-5.6,1.6-6.5,6.5c-0.9-4.8-1.6-5.6-6.5-6.5c4.8-0.9,5.6-1.6,6.5-6.5 C647.8,419.9,648.5,420.7,653.4,421.6z" fill="#171717"/></g></g></g><g><g><g id="change1_9"><path d="M507.4,92.5c-4.8,0.9-5.6,1.6-6.5,6.5c-0.9-4.8-1.6-5.6-6.5-6.5c4.8-0.9,5.6-1.6,6.5-6.5 C501.9,90.9,502.6,91.6,507.4,92.5z" fill="#171717"/></g></g></g><g><g><g id="change1_20"><path d="M70.3,204.9c-0.1,8.6-0.3,8.8-8.9,9.1c8.6,0.1,8.8,0.3,9.1,8.9c0.1-8.6,0.3-8.8,8.9-9.1 C70.8,213.6,70.6,213.4,70.3,204.9" fill="#171717"/></g></g></g><g><g><g id="change1_5"><path d="M99,230.5c-0.1,8.6-0.3,8.8-8.9,9.1c8.6,0.1,8.8,0.3,9.1,8.9c0.1-8.6,0.3-8.8,8.9-9.1 C99.5,239.3,99.3,239.1,99,230.5" fill="#171717"/></g></g></g><g><g><g id="change1_1"><path d="M454.7,76.3c-0.1,8.6-0.3,8.8-8.9,9.1c8.6,0.1,8.8,0.3,9.1,8.9c0.1-8.6,0.3-8.8,8.9-9.1 C455.2,85,455,84.8,454.7,76.3" fill="#171717"/></g></g></g><g id="change2_5"><path d="M477.8,87.4l0.5,3.7c0,0.2,0.1,0.3,0.2,0.5c0.1,0.1,0.3,0.2,0.5,0.2l3.7,0.5l-3.7,0.5c-0.4,0-0.6,0.3-0.7,0.7l-0.5,3.7 l-0.5-3.7c0-0.2-0.1-0.3-0.2-0.4c-0.1-0.1-0.3-0.2-0.5-0.2l-3.7-0.5l3.7-0.5c0.4,0,0.6-0.3,0.7-0.7L477.8,87.4z"/></g><g id="change2_7"><path d="M274.2,95l1,6.7c0.1,0.3,0.2,0.6,0.4,0.8c0.2,0.2,0.5,0.4,0.8,0.4l6.7,1l-6.7,1c-0.6,0.1-1.2,0.6-1.2,1.2l-1,6.7l-1-6.7 c-0.1-0.3-0.2-0.6-0.4-0.8c-0.2-0.2-0.5-0.4-0.8-0.4l-6.7-1l6.7-1c0.7-0.1,1.2-0.6,1.2-1.2L274.2,95z"/></g><g id="change1_7"><path d="M315.3,113.9l1.2-3.3l-2.1,2.9l-2.4-5l0.8,5.5l-3.3-1.2l2.9,2.1l-5,2.3l5.5-0.8l-1.2,3.3l2.1-2.9l2.3,5 l-0.8-5.5l3.3,1.2l-2.9-2.1l5-2.4L315.3,113.9z" fill="#171717"/></g><g id="change1_19"><path d="M262.5,40.2l2.7-1.6l-3,0.7l1.2-4.7l-2.5,4.2l-1.6-2.7l0.7,3l-4.7-1.2l4.2,2.5l-2.7,1.6l3-0.7l-1.2,4.7 l2.5-4.2l1.6,2.7l-0.7-3l4.7,1.2L262.5,40.2z" fill="#171717"/></g><g><g><g id="change1_22"><path d="M208.7,53.6c-4.8,0.9-5.6,1.6-6.5,6.5c-0.9-4.8-1.6-5.6-6.5-6.5c4.8-0.9,5.6-1.6,6.5-6.5 C203.1,52,203.8,52.7,208.7,53.6z" fill="#171717"/></g></g></g><g><g><g id="change1_30"><path d="M209.7,148.4c-4.8,0.9-5.6,1.6-6.5,6.5c-0.9-4.8-1.6-5.6-6.5-6.5c4.8-0.9,5.6-1.6,6.5-6.5 C204.1,146.8,204.8,147.5,209.7,148.4z" fill="#171717"/></g></g></g><g><g><g id="change1_4"><path d="M263.6,121.1c-4.8,0.9-5.6,1.6-6.5,6.5c-0.9-4.8-1.6-5.6-6.5-6.5c4.8-0.9,5.6-1.6,6.5-6.5 C258,119.5,258.8,120.2,263.6,121.1z" fill="#171717"/></g></g></g><g><g><g id="change1_28"><path d="M293.6,36.5c-0.1,8.6-0.3,8.8-8.9,9.1c8.6,0.1,8.8,0.3,9.1,8.9c0.1-8.6,0.3-8.8,8.9-9.1 C294.1,45.3,293.9,45.1,293.6,36.5" fill="#171717"/></g></g></g><g><g><g id="change1_15"><path d="M414.1,39.8c-0.1,8.6-0.3,8.8-8.9,9.1c8.6,0.1,8.8,0.3,9.1,8.9c0.1-8.6,0.3-8.8,8.9-9.1 C414.6,48.5,414.4,48.3,414.1,39.8" fill="#171717"/></g></g></g><g id="change1_23"><path d="M375.6,43.9l0.8-2.1l-1.4,1.8l-1.4-3.3l0.5,3.5l-2.1-0.8l1.8,1.4l-3.3,1.4l3.5-0.5l-0.8,2.1l1.4-1.8L376,49 l-0.5-3.5l2.1,0.8l-1.8-1.4l3.3-1.4L375.6,43.9z" fill="#171717"/></g><g><g id="change1_32"><path d="M167.7,80.8c3,0,3-4.7,0-4.7C164.7,76.2,164.7,80.8,167.7,80.8L167.7,80.8z" fill="#171717"/></g></g><g><g id="change1_21"><path d="M468.1,72.2c3,0,3-4.7,0-4.7C465.1,67.5,465.1,72.2,468.1,72.2L468.1,72.2z" fill="#171717"/></g></g><g id="change2_2"><path d="M134.3,99.4l2.9,19.9c0.1,0.9,0.6,1.8,1.2,2.4c0.7,0.6,1.5,1.1,2.4,1.2l19.8,2.9l-19.9,2.9c-1.9,0.3-3.4,1.7-3.6,3.6 l-2.9,19.8l-2.9-19.9c-0.1-0.9-0.6-1.8-1.2-2.4c-0.7-0.6-1.5-1.1-2.4-1.2l-19.9-2.9l19.9-2.9c1.9-0.3,3.4-1.7,3.6-3.6L134.3,99.4z"/></g><g id="change2_8"><path d="M658.3,429.2l1.5,10.3c0.1,0.5,0.3,0.9,0.6,1.3c0.3,0.3,0.8,0.6,1.2,0.6l10.3,1.5l-10.3,1.5c-1,0.1-1.7,0.9-1.9,1.9 l-1.5,10.3l-1.5-10.3c-0.1-0.5-0.3-0.9-0.6-1.3c-0.3-0.3-0.8-0.6-1.2-0.6l-10.3-1.5l10.3-1.5c1-0.1,1.7-0.9,1.9-1.9L658.3,429.2z"/></g><g id="change2_6"><path d="M469.3,594l3.1,21.3c0.1,1,0.6,1.9,1.3,2.6c0.7,0.7,1.6,1.1,2.6,1.3l21.3,3.1l-21.3,3.1c-2,0.3-3.6,1.9-3.9,3.9l-3.1,21.2 l-3.1-21.3c-0.1-1-0.6-1.9-1.3-2.6c-0.7-0.7-1.6-1.1-2.6-1.3l-21.3-3.1l21.3-3.1c2-0.3,3.6-1.9,3.9-3.9L469.3,594z"/></g><g><g><g id="change3_11"><path d="M175.8,192.8l-0.6-3c-3.2-17.2-5.5-19.5-22.6-22.6l-3-0.6l3-0.6c17.2-3.2,19.5-5.5,22.6-22.6l0.6-3l0.6,3 c3.2,17.2,5.5,19.5,22.6,22.6l3,0.6l-3,0.6c-17.2,3.2-19.5,5.5-22.6,22.6L175.8,192.8z M155.7,166.5c14,2.9,17.3,6.1,20.1,20.1 c2.9-14,6.1-17.3,20.1-20.1c-14-2.9-17.3-6.1-20.1-20.1C173,160.4,169.7,163.7,155.7,166.5z" fill="#ffffff"/></g></g></g><g><g><g id="change3_21"><path d="M352.3,690.3l-0.6-3c-2.1-11.2-3.6-12.7-14.7-14.7l-3-0.6l3-0.6c11.2-2.1,12.7-3.6,14.7-14.7l0.6-3l0.6,3 c2.1,11.2,3.6,12.7,14.7,14.7l3,0.6l-3,0.6c-11.2,2.1-12.7,3.6-14.7,14.7L352.3,690.3z M340,672c8.2,1.8,10.5,4,12.3,12.3 c1.8-8.2,4-10.5,12.3-12.3c-8.2-1.8-10.5-4-12.3-12.3C350.5,667.9,348.3,670.2,340,672z" fill="#ffffff"/></g></g></g><g><g><g id="change1_24"><path d="M432.5,670.3c-17.3,3.2-19.9,5.8-23.1,23.1c-3.2-17.3-5.8-19.9-23.1-23.1c17.3-3.2,19.9-5.8,23.1-23.1 C412.6,664.5,415.2,667.1,432.5,670.3z" fill="#171717"/></g></g></g><g id="change1_2"><path d="M325,80C325,80,324.9,80,325,80c-0.1-0.1-0.1-0.1-0.2-0.2c0,0-0.1-0.1-0.2-0.1c-0.1,0-0.1-0.1-0.2-0.1 c-0.1,0-0.2-0.1-0.3-0.1c-0.1,0-0.2,0-0.3-0.1c-0.1,0-0.2,0-0.4-0.1c-0.1,0-0.3,0-0.4-0.1c-0.1,0-0.3,0-0.5-0.1 c-0.2,0-0.3,0-0.5-0.1c-0.2,0-0.4,0-0.5-0.1c-0.2,0-0.4,0-0.6-0.1c-0.2,0-0.4,0-0.6-0.1c-0.2,0-0.4,0-0.7-0.1 c-0.2,0-0.5,0-0.7-0.1c-0.2,0-0.5,0-0.7-0.1c-0.3,0-0.5,0-0.8-0.1c-0.3,0-0.5,0-0.8,0c-0.3,0-0.6,0-0.8,0c-0.3,0-0.6,0-0.9,0 c-0.3,0-0.6,0-0.9,0c-0.3,0-0.6,0-0.9,0c-0.3,0-0.6,0-0.9,0c-0.3,0-0.6,0-1,0c-0.3,0-0.6,0-1,0c-0.3,0-0.7,0-1,0c-0.3,0-0.7,0-1,0 c-0.2,0-0.4,0-0.6,0c0.1-0.2,0.3-0.3,0.4-0.5c0.2-0.2,0.4-0.4,0.6-0.6c0.2-0.2,0.4-0.4,0.6-0.6c0.2-0.2,0.4-0.4,0.5-0.6 c0.2-0.2,0.4-0.4,0.5-0.6c0.2-0.2,0.3-0.4,0.5-0.6c0.2-0.2,0.3-0.4,0.5-0.5c0.2-0.2,0.3-0.4,0.5-0.5c0.2-0.2,0.3-0.3,0.5-0.5 c0.2-0.2,0.3-0.3,0.4-0.5c0.1-0.2,0.3-0.3,0.4-0.5c0.1-0.2,0.3-0.3,0.4-0.5c0.1-0.2,0.3-0.3,0.4-0.4c0.1-0.1,0.2-0.3,0.4-0.4 c0.1-0.1,0.2-0.3,0.3-0.4c0.1-0.1,0.2-0.3,0.3-0.4c0.1-0.1,0.2-0.2,0.3-0.4c0.1-0.1,0.2-0.2,0.3-0.3c0.1-0.1,0.2-0.2,0.2-0.3 c0.1-0.1,0.1-0.2,0.2-0.3c0.1-0.1,0.1-0.2,0.2-0.3c0.1-0.1,0.1-0.2,0.1-0.2c0-0.1,0.1-0.1,0.1-0.2c0-0.1,0.1-0.1,0.1-0.2 c0-0.1,0-0.1,0.1-0.1c0,0,0-0.1,0-0.1c0,0,0-0.1,0-0.1c0,0,0,0,0-0.1c0,0,0,0-0.1,0c0,0-0.1,0-0.1,0c0,0-0.1,0-0.1,0 c0,0-0.1,0-0.1,0.1c-0.1,0-0.1,0.1-0.2,0.1c-0.1,0-0.1,0.1-0.2,0.1c-0.1,0-0.1,0.1-0.2,0.1c-0.1,0.1-0.2,0.1-0.3,0.2 c-0.1,0.1-0.2,0.1-0.3,0.2c-0.1,0.1-0.2,0.1-0.3,0.2c-0.1,0.1-0.2,0.2-0.3,0.3c-0.1,0.1-0.2,0.2-0.4,0.3c-0.1,0.1-0.2,0.2-0.4,0.3 c-0.1,0.1-0.3,0.2-0.4,0.3c-0.1,0.1-0.3,0.2-0.4,0.4c-0.1,0.1-0.3,0.2-0.4,0.4c-0.2,0.1-0.3,0.3-0.5,0.4c-0.2,0.1-0.3,0.3-0.5,0.4 c-0.2,0.1-0.3,0.3-0.5,0.4c-0.2,0.2-0.3,0.3-0.5,0.5c-0.2,0.2-0.3,0.3-0.5,0.5c-0.2,0.2-0.4,0.3-0.5,0.5c-0.2,0.2-0.4,0.3-0.6,0.5 c-0.2,0.2-0.4,0.3-0.6,0.5c-0.2,0.2-0.4,0.4-0.6,0.5c-0.2,0.2-0.4,0.4-0.6,0.6c-0.2,0.2-0.4,0.4-0.6,0.6c-0.2,0.1-0.3,0.3-0.5,0.4 c0-0.2,0-0.4,0-0.6c0-0.3,0-0.7,0-1c0-0.3,0-0.7,0-1c0-0.3,0-0.6,0-1c0-0.3,0-0.6,0-1c0-0.3,0-0.6,0-0.9c0-0.3,0-0.6,0-0.9 c0-0.3,0-0.6,0-0.9c0-0.3,0-0.6,0-0.9c0-0.3,0-0.6,0-0.8c0-0.3,0-0.5,0-0.8c0-0.3,0-0.5-0.1-0.8c0-0.3,0-0.5-0.1-0.7 c0-0.2,0-0.5-0.1-0.7c0-0.2,0-0.5-0.1-0.7c0-0.2,0-0.4-0.1-0.6c0-0.2,0-0.4-0.1-0.6c0-0.2,0-0.4-0.1-0.5c0-0.2,0-0.3-0.1-0.5 c0-0.2,0-0.3-0.1-0.5c0-0.1,0-0.3-0.1-0.4c0-0.1,0-0.3-0.1-0.4c0-0.1,0-0.2-0.1-0.3c0-0.1,0-0.2-0.1-0.3c0-0.1-0.1-0.2-0.1-0.2 c0-0.1-0.1-0.1-0.1-0.2c0,0-0.1-0.1-0.1-0.1c0,0-0.1-0.1-0.1-0.1c0,0-0.1,0-0.1,0c0,0-0.1,0-0.1,0c0,0-0.1,0-0.1,0.1 c0,0-0.1,0.1-0.1,0.1c0,0.1-0.1,0.1-0.1,0.2c0,0.1-0.1,0.1-0.1,0.2c0,0.1-0.1,0.2-0.1,0.3c0,0.1-0.1,0.2-0.1,0.3 c0,0.1,0,0.2-0.1,0.4c0,0.1,0,0.3-0.1,0.4c0,0.1,0,0.3-0.1,0.5c0,0.2,0,0.3-0.1,0.5c0,0.2,0,0.4-0.1,0.5c0,0.2,0,0.4-0.1,0.6 c0,0.2,0,0.4-0.1,0.6c0,0.2,0,0.4-0.1,0.7c0,0.2,0,0.5-0.1,0.7c0,0.2,0,0.5-0.1,0.7c0,0.3,0,0.5-0.1,0.8c0,0.3,0,0.5,0,0.8 c0,0.3,0,0.6,0,0.8c0,0.3,0,0.6,0,0.9c0,0.3,0,0.6,0,0.9c0,0.3,0,0.6,0,0.9c0,0.3,0,0.6,0,0.9c0,0.3,0,0.6,0,1c0,0.3,0,0.6,0,1 c0,0.3,0,0.7,0,1c0,0.3,0,0.7,0,1c0,0.2,0,0.4,0,0.6c-0.2-0.1-0.3-0.3-0.5-0.4c-0.2-0.2-0.4-0.4-0.6-0.6c-0.2-0.2-0.4-0.4-0.6-0.6 c-0.2-0.2-0.4-0.4-0.6-0.5c-0.2-0.2-0.4-0.4-0.6-0.5c-0.2-0.2-0.4-0.3-0.6-0.5c-0.2-0.2-0.4-0.3-0.5-0.5c-0.2-0.2-0.4-0.3-0.5-0.5 c-0.2-0.2-0.3-0.3-0.5-0.5c-0.2-0.2-0.3-0.3-0.5-0.4c-0.2-0.1-0.3-0.3-0.5-0.4c-0.2-0.1-0.3-0.3-0.5-0.4c-0.2-0.1-0.3-0.3-0.4-0.4 c-0.1-0.1-0.3-0.2-0.4-0.4c-0.1-0.1-0.3-0.2-0.4-0.3c-0.1-0.1-0.3-0.2-0.4-0.3c-0.1-0.1-0.2-0.2-0.4-0.3c-0.1-0.1-0.2-0.2-0.3-0.3 c-0.1-0.1-0.2-0.2-0.3-0.2c-0.1-0.1-0.2-0.1-0.3-0.2c-0.1-0.1-0.2-0.1-0.3-0.2c-0.1-0.1-0.2-0.1-0.2-0.1c-0.1,0-0.1-0.1-0.2-0.1 c-0.1,0-0.1-0.1-0.2-0.1c-0.1,0-0.1,0-0.1-0.1c0,0-0.1,0-0.1,0c0,0-0.1,0-0.1,0c0,0,0,0-0.1,0c0,0,0,0,0,0.1c0,0,0,0.1,0,0.1 c0,0,0,0.1,0,0.1c0,0,0,0.1,0.1,0.1c0,0.1,0.1,0.1,0.1,0.2c0,0.1,0.1,0.1,0.1,0.2c0,0.1,0.1,0.1,0.1,0.2c0.1,0.1,0.1,0.2,0.2,0.3 c0.1,0.1,0.1,0.2,0.2,0.3c0.1,0.1,0.1,0.2,0.2,0.3c0.1,0.1,0.2,0.2,0.3,0.3c0.1,0.1,0.2,0.2,0.3,0.4c0.1,0.1,0.2,0.2,0.3,0.4 c0.1,0.1,0.2,0.3,0.3,0.4c0.1,0.1,0.2,0.3,0.4,0.4c0.1,0.1,0.2,0.3,0.4,0.4c0.1,0.2,0.3,0.3,0.4,0.5c0.1,0.2,0.3,0.3,0.4,0.5 c0.1,0.2,0.3,0.3,0.4,0.5c0.2,0.2,0.3,0.3,0.5,0.5c0.2,0.2,0.3,0.3,0.5,0.5c0.2,0.2,0.3,0.4,0.5,0.5c0.2,0.2,0.3,0.4,0.5,0.6 c0.2,0.2,0.3,0.4,0.5,0.6c0.2,0.2,0.4,0.4,0.5,0.6c0.2,0.2,0.4,0.4,0.6,0.6c0.2,0.2,0.4,0.4,0.6,0.6c0.1,0.2,0.3,0.3,0.4,0.5 c-0.2,0-0.4,0-0.6,0c-0.3,0-0.7,0-1,0c-0.3,0-0.7,0-1,0c-0.3,0-0.6,0-1,0c-0.3,0-0.6,0-1,0c-0.3,0-0.6,0-0.9,0c-0.3,0-0.6,0-0.9,0 c-0.3,0-0.6,0-0.9,0c-0.3,0-0.6,0-0.9,0c-0.3,0-0.6,0-0.8,0c-0.3,0-0.5,0-0.8,0c-0.3,0-0.5,0-0.8,0.1c-0.3,0-0.5,0-0.7,0.1 c-0.2,0-0.5,0-0.7,0.1c-0.2,0-0.5,0-0.7,0.1c-0.2,0-0.4,0-0.6,0.1c-0.2,0-0.4,0-0.6,0.1c-0.2,0-0.4,0-0.5,0.1 c-0.2,0-0.3,0-0.5,0.1c-0.2,0-0.3,0-0.5,0.1c-0.1,0-0.3,0-0.4,0.1c-0.1,0-0.3,0-0.4,0.1c-0.1,0-0.2,0-0.3,0.1 c-0.1,0-0.2,0.1-0.3,0.1c-0.1,0-0.2,0.1-0.2,0.1c-0.1,0-0.1,0.1-0.2,0.1c0,0-0.1,0.1-0.1,0.1c0,0-0.1,0.1-0.1,0.1c0,0,0,0.1,0,0.1 c0,0,0,0.1,0,0.1c0,0,0,0.1,0.1,0.1c0,0,0.1,0.1,0.1,0.1c0.1,0,0.1,0.1,0.2,0.1c0.1,0,0.1,0.1,0.2,0.1c0.1,0,0.2,0.1,0.3,0.1 c0.1,0,0.2,0,0.3,0.1c0.1,0,0.2,0,0.4,0.1c0.1,0,0.3,0,0.4,0.1c0.1,0,0.3,0,0.5,0.1c0.2,0,0.3,0,0.5,0.1c0.2,0,0.4,0,0.5,0.1 c0.2,0,0.4,0,0.6,0.1c0.2,0,0.4,0,0.6,0.1c0.2,0,0.4,0,0.7,0.1c0.2,0,0.5,0,0.7,0.1c0.2,0,0.5,0,0.7,0.1c0.3,0,0.5,0,0.8,0.1 c0.3,0,0.5,0,0.8,0c0.3,0,0.6,0,0.8,0c0.3,0,0.6,0,0.9,0c0.3,0,0.6,0,0.9,0c0.3,0,0.6,0,0.9,0c0.3,0,0.6,0,0.9,0c0.3,0,0.6,0,1,0 c0.3,0,0.6,0,1,0c0.3,0,0.7,0,1,0c0.3,0,0.7,0,1,0c0.2,0,0.4,0,0.6,0c-0.1,0.2-0.3,0.3-0.4,0.5c-0.2,0.2-0.4,0.4-0.6,0.6 c-0.2,0.2-0.4,0.4-0.6,0.6c-0.2,0.2-0.4,0.4-0.5,0.6c-0.2,0.2-0.4,0.4-0.5,0.6c-0.2,0.2-0.3,0.4-0.5,0.6c-0.2,0.2-0.3,0.4-0.5,0.5 c-0.2,0.2-0.3,0.4-0.5,0.5c-0.2,0.2-0.3,0.3-0.5,0.5c-0.1,0.2-0.3,0.3-0.4,0.5c-0.1,0.2-0.3,0.3-0.4,0.5c-0.1,0.2-0.3,0.3-0.4,0.5 c-0.1,0.2-0.3,0.3-0.4,0.4c-0.1,0.1-0.2,0.3-0.4,0.4c-0.1,0.1-0.2,0.3-0.3,0.4c-0.1,0.1-0.2,0.3-0.3,0.4c-0.1,0.1-0.2,0.2-0.3,0.4 c-0.1,0.1-0.2,0.2-0.3,0.3c-0.1,0.1-0.2,0.2-0.2,0.3c-0.1,0.1-0.1,0.2-0.2,0.3c-0.1,0.1-0.1,0.2-0.2,0.3c-0.1,0.1-0.1,0.2-0.1,0.2 c0,0.1-0.1,0.1-0.1,0.2c0,0.1-0.1,0.1-0.1,0.2c0,0.1,0,0.1-0.1,0.1c0,0,0,0.1,0,0.1c0,0,0,0.1,0,0.1c0,0,0,0,0,0.1c0,0,0,0,0.1,0 c0,0,0.1,0,0.1,0c0,0,0.1,0,0.1,0c0,0,0.1,0,0.1-0.1c0.1,0,0.1-0.1,0.2-0.1c0.1,0,0.1-0.1,0.2-0.1c0.1,0,0.1-0.1,0.2-0.1 c0.1-0.1,0.2-0.1,0.3-0.2c0.1-0.1,0.2-0.1,0.3-0.2c0.1-0.1,0.2-0.1,0.3-0.2c0.1-0.1,0.2-0.2,0.3-0.3c0.1-0.1,0.2-0.2,0.4-0.3 c0.1-0.1,0.2-0.2,0.4-0.3c0.1-0.1,0.3-0.2,0.4-0.3c0.1-0.1,0.3-0.2,0.4-0.4c0.1-0.1,0.3-0.2,0.4-0.4c0.2-0.1,0.3-0.3,0.5-0.4 c0.2-0.1,0.3-0.3,0.5-0.4c0.2-0.1,0.3-0.3,0.5-0.4c0.2-0.2,0.3-0.3,0.5-0.5c0.2-0.2,0.3-0.3,0.5-0.5c0.2-0.2,0.4-0.3,0.5-0.5 c0.2-0.2,0.4-0.3,0.6-0.5c0.2-0.2,0.4-0.3,0.6-0.5c0.2-0.2,0.4-0.4,0.6-0.5c0.2-0.2,0.4-0.4,0.6-0.6c0.2-0.2,0.4-0.4,0.6-0.6 c0.2-0.1,0.3-0.3,0.5-0.4c0,0.2,0,0.4,0,0.6c0,0.3,0,0.7,0,1c0,0.3,0,0.7,0,1c0,0.3,0,0.6,0,1c0,0.3,0,0.6,0,1s0,0.6,0,0.9 c0,0.3,0,0.6,0,0.9c0,0.3,0,0.6,0,0.9c0,0.3,0,0.6,0,0.9c0,0.3,0,0.6,0,0.8c0,0.3,0,0.5,0,0.8c0,0.3,0,0.5,0.1,0.8 c0,0.3,0,0.5,0.1,0.7c0,0.2,0,0.5,0.1,0.7c0,0.2,0,0.5,0.1,0.7c0,0.2,0,0.4,0.1,0.6c0,0.2,0,0.4,0.1,0.6c0,0.2,0,0.4,0.1,0.5 c0,0.2,0,0.3,0.1,0.5c0,0.2,0,0.3,0.1,0.5c0,0.1,0,0.3,0.1,0.4c0,0.1,0,0.3,0.1,0.4c0,0.1,0,0.2,0.1,0.3c0,0.1,0.1,0.2,0.1,0.3 c0,0.1,0.1,0.2,0.1,0.2c0,0.1,0.1,0.1,0.1,0.2c0,0.1,0.1,0.1,0.1,0.1c0,0,0.1,0.1,0.1,0.1c0,0,0.1,0,0.1,0c0,0,0.1,0,0.1,0 c0,0,0.1,0,0.1-0.1c0,0,0.1-0.1,0.1-0.1c0,0,0.1-0.1,0.1-0.2c0-0.1,0.1-0.1,0.1-0.2c0-0.1,0.1-0.2,0.1-0.3c0-0.1,0.1-0.2,0.1-0.3 c0-0.1,0-0.2,0.1-0.4c0-0.1,0-0.3,0.1-0.4c0-0.1,0-0.3,0.1-0.5c0-0.2,0-0.3,0.1-0.5c0-0.2,0-0.4,0.1-0.5c0-0.2,0-0.4,0.1-0.6 c0-0.2,0-0.4,0.1-0.6c0-0.2,0-0.4,0.1-0.7c0-0.2,0-0.5,0.1-0.7c0-0.2,0-0.5,0.1-0.7c0-0.3,0-0.5,0.1-0.8c0-0.3,0-0.5,0-0.8 c0-0.3,0-0.6,0-0.8c0-0.3,0-0.6,0-0.9c0-0.3,0-0.6,0-0.9c0-0.3,0-0.6,0-0.9c0-0.3,0-0.6,0-0.9c0-0.3,0-0.6,0-1c0-0.3,0-0.6,0-1 c0-0.3,0-0.7,0-1c0-0.3,0-0.7,0-1c0-0.2,0-0.4,0-0.6c0.2,0.1,0.3,0.3,0.5,0.4c0.2,0.2,0.4,0.4,0.6,0.6c0.2,0.2,0.4,0.4,0.6,0.6 c0.2,0.2,0.4,0.4,0.6,0.5c0.2,0.2,0.4,0.4,0.6,0.5c0.2,0.2,0.4,0.3,0.6,0.5c0.2,0.2,0.4,0.3,0.5,0.5c0.2,0.2,0.4,0.3,0.5,0.5 c0.2,0.2,0.3,0.3,0.5,0.5c0.2,0.2,0.3,0.3,0.5,0.4c0.2,0.1,0.3,0.3,0.5,0.4c0.2,0.1,0.3,0.3,0.5,0.4c0.2,0.1,0.3,0.3,0.4,0.4 c0.1,0.1,0.3,0.2,0.4,0.4c0.1,0.1,0.3,0.2,0.4,0.3c0.1,0.1,0.3,0.2,0.4,0.3c0.1,0.1,0.2,0.2,0.4,0.3c0.1,0.1,0.2,0.2,0.3,0.3 c0.1,0.1,0.2,0.2,0.3,0.2c0.1,0.1,0.2,0.1,0.3,0.2c0.1,0.1,0.2,0.1,0.3,0.2c0.1,0.1,0.2,0.1,0.2,0.1c0.1,0,0.1,0.1,0.2,0.1 c0.1,0,0.1,0.1,0.2,0.1c0.1,0,0.1,0,0.1,0.1c0,0,0.1,0,0.1,0c0,0,0.1,0,0.1,0c0,0,0,0,0.1,0c0,0,0,0,0-0.1c0,0,0-0.1,0-0.1 c0,0,0-0.1,0-0.1c0,0,0-0.1-0.1-0.1c0-0.1-0.1-0.1-0.1-0.2c0-0.1-0.1-0.1-0.1-0.2c0-0.1-0.1-0.1-0.1-0.2c-0.1-0.1-0.1-0.2-0.2-0.3 c-0.1-0.1-0.1-0.2-0.2-0.3c-0.1-0.1-0.1-0.2-0.2-0.3c-0.1-0.1-0.2-0.2-0.3-0.3c-0.1-0.1-0.2-0.2-0.3-0.4c-0.1-0.1-0.2-0.2-0.3-0.4 c-0.1-0.1-0.2-0.3-0.3-0.4c-0.1-0.1-0.2-0.3-0.4-0.4c-0.1-0.1-0.2-0.3-0.4-0.4c-0.1-0.2-0.3-0.3-0.4-0.5c-0.1-0.2-0.3-0.3-0.4-0.5 c-0.1-0.2-0.3-0.3-0.4-0.5c-0.1-0.2-0.3-0.3-0.5-0.5c-0.2-0.2-0.3-0.3-0.5-0.5c-0.2-0.2-0.3-0.4-0.5-0.5c-0.2-0.2-0.3-0.4-0.5-0.6 c-0.2-0.2-0.3-0.4-0.5-0.6c-0.2-0.2-0.4-0.4-0.5-0.6c-0.2-0.2-0.4-0.4-0.6-0.6c-0.2-0.2-0.4-0.4-0.6-0.6c-0.1-0.2-0.3-0.3-0.4-0.5 c0.2,0,0.4,0,0.6,0c0.3,0,0.7,0,1,0c0.3,0,0.7,0,1,0c0.3,0,0.6,0,1,0c0.3,0,0.6,0,1,0c0.3,0,0.6,0,0.9,0c0.3,0,0.6,0,0.9,0 c0.3,0,0.6,0,0.9,0c0.3,0,0.6,0,0.9,0c0.3,0,0.6,0,0.8,0c0.3,0,0.5,0,0.8,0c0.3,0,0.5,0,0.8-0.1c0.3,0,0.5,0,0.7-0.1 c0.2,0,0.5,0,0.7-0.1c0.2,0,0.5,0,0.7-0.1c0.2,0,0.4,0,0.6-0.1c0.2,0,0.4,0,0.6-0.1c0.2,0,0.4,0,0.5-0.1c0.2,0,0.3,0,0.5-0.1 c0.2,0,0.3,0,0.5-0.1c0.1,0,0.3,0,0.4-0.1c0.1,0,0.3,0,0.4-0.1c0.1,0,0.2,0,0.3-0.1c0.1,0,0.2-0.1,0.3-0.1c0.1,0,0.2-0.1,0.2-0.1 c0.1,0,0.1-0.1,0.2-0.1c0.1,0,0.1-0.1,0.1-0.1c0,0,0.1-0.1,0.1-0.1C325,80.1,325,80.1,325,80C325,80.1,325,80,325,80z" fill="#171717"/></g><g id="change1_10"><path d="M599,595.6C599,595.6,598.9,595.6,599,595.6c-0.1-0.1-0.1-0.1-0.2-0.2c0,0-0.1,0-0.2-0.1 c-0.1,0-0.1,0-0.2-0.1c-0.1,0-0.2,0-0.3-0.1c-0.1,0-0.2,0-0.3-0.1c-0.1,0-0.2,0-0.4-0.1c-0.1,0-0.3,0-0.4-0.1 c-0.1,0-0.3,0-0.4-0.1c-0.2,0-0.3,0-0.5-0.1c-0.2,0-0.3,0-0.5-0.1c-0.2,0-0.4,0-0.6-0.1c-0.2,0-0.4,0-0.6-0.1 c-0.2,0-0.4,0-0.6-0.1c-0.2,0-0.4,0-0.7-0.1c-0.2,0-0.5,0-0.7-0.1c-0.2,0-0.5,0-0.7,0c-0.3,0-0.5,0-0.8,0c-0.3,0-0.5,0-0.8,0 c-0.3,0-0.5,0-0.8,0c-0.3,0-0.6,0-0.9,0c-0.3,0-0.6,0-0.9,0c-0.3,0-0.6,0-0.9,0c-0.3,0-0.6,0-0.9,0c-0.3,0-0.6,0-0.9,0 c-0.3,0-0.6,0-0.9,0c-0.3,0-0.6,0-1,0c-0.2,0-0.4,0-0.6,0c0.1-0.1,0.3-0.3,0.4-0.4c0.2-0.2,0.4-0.4,0.5-0.6 c0.2-0.2,0.4-0.4,0.5-0.6c0.2-0.2,0.3-0.4,0.5-0.6c0.2-0.2,0.3-0.4,0.5-0.5c0.2-0.2,0.3-0.4,0.5-0.5c0.2-0.2,0.3-0.3,0.5-0.5 c0.2-0.2,0.3-0.3,0.5-0.5c0.2-0.2,0.3-0.3,0.4-0.5c0.1-0.2,0.3-0.3,0.4-0.5c0.1-0.2,0.3-0.3,0.4-0.5c0.1-0.2,0.3-0.3,0.4-0.4 c0.1-0.1,0.2-0.3,0.4-0.4c0.1-0.1,0.2-0.3,0.3-0.4c0.1-0.1,0.2-0.3,0.3-0.4c0.1-0.1,0.2-0.2,0.3-0.4c0.1-0.1,0.2-0.2,0.3-0.3 c0.1-0.1,0.2-0.2,0.2-0.3c0.1-0.1,0.2-0.2,0.2-0.3c0.1-0.1,0.1-0.2,0.2-0.3c0.1-0.1,0.1-0.2,0.2-0.2c0.1-0.1,0.1-0.2,0.1-0.2 c0-0.1,0.1-0.1,0.1-0.2c0-0.1,0.1-0.1,0.1-0.2c0-0.1,0-0.1,0.1-0.1s0-0.1,0-0.1c0,0,0-0.1,0-0.1c0,0,0,0,0-0.1c0,0,0,0-0.1,0 c0,0-0.1,0-0.1,0c0,0-0.1,0-0.1,0c0,0-0.1,0-0.1,0.1c-0.1,0-0.1,0.1-0.2,0.1c-0.1,0-0.1,0.1-0.2,0.1c-0.1,0-0.1,0.1-0.2,0.1 c-0.1,0.1-0.2,0.1-0.2,0.2c-0.1,0.1-0.2,0.1-0.3,0.2c-0.1,0.1-0.2,0.1-0.3,0.2c-0.1,0.1-0.2,0.2-0.3,0.2c-0.1,0.1-0.2,0.2-0.3,0.3 c-0.1,0.1-0.2,0.2-0.4,0.3c-0.1,0.1-0.3,0.2-0.4,0.3c-0.1,0.1-0.3,0.2-0.4,0.3c-0.1,0.1-0.3,0.2-0.4,0.4c-0.1,0.1-0.3,0.3-0.4,0.4 c-0.2,0.1-0.3,0.3-0.5,0.4c-0.2,0.1-0.3,0.3-0.5,0.4c-0.2,0.1-0.3,0.3-0.5,0.4c-0.2,0.2-0.3,0.3-0.5,0.5c-0.2,0.2-0.3,0.3-0.5,0.5 c-0.2,0.2-0.4,0.3-0.5,0.5c-0.2,0.2-0.4,0.3-0.5,0.5c-0.2,0.2-0.4,0.3-0.6,0.5c-0.2,0.2-0.4,0.4-0.6,0.5c-0.2,0.2-0.4,0.4-0.6,0.5 c-0.1,0.1-0.3,0.3-0.4,0.4c0-0.2,0-0.4,0-0.6c0-0.3,0-0.6,0-1c0-0.3,0-0.6,0-0.9c0-0.3,0-0.6,0-0.9c0-0.3,0-0.6,0-0.9 c0-0.3,0-0.6,0-0.9c0-0.3,0-0.6,0-0.9c0-0.3,0-0.6,0-0.9c0-0.3,0-0.6,0-0.8c0-0.3,0-0.5,0-0.8c0-0.3,0-0.5,0-0.8 c0-0.3,0-0.5,0-0.7c0-0.2,0-0.5-0.1-0.7c0-0.2,0-0.5-0.1-0.7c0-0.2,0-0.4-0.1-0.6c0-0.2,0-0.4-0.1-0.6c0-0.2,0-0.4-0.1-0.6 c0-0.2,0-0.4-0.1-0.5c0-0.2,0-0.3-0.1-0.5c0-0.2,0-0.3-0.1-0.4c0-0.1,0-0.3-0.1-0.4c0-0.1,0-0.2-0.1-0.4c0-0.1,0-0.2-0.1-0.3 c0-0.1,0-0.2-0.1-0.3c0-0.1,0-0.2-0.1-0.2c0-0.1,0-0.1-0.1-0.2c0,0-0.1-0.1-0.1-0.1c0,0-0.1-0.1-0.1-0.1c0,0-0.1,0-0.1,0 c0,0-0.1,0-0.1,0c0,0-0.1,0-0.1,0.1c0,0-0.1,0.1-0.1,0.1c0,0-0.1,0.1-0.1,0.2c0,0.1,0,0.1-0.1,0.2c0,0.1,0,0.2-0.1,0.3 c0,0.1,0,0.2-0.1,0.3c0,0.1,0,0.2-0.1,0.4c0,0.1,0,0.3-0.1,0.4c0,0.1,0,0.3-0.1,0.4c0,0.2,0,0.3-0.1,0.5c0,0.2,0,0.3-0.1,0.5 c0,0.2,0,0.4-0.1,0.6c0,0.2,0,0.4-0.1,0.6c0,0.2,0,0.4-0.1,0.6c0,0.2,0,0.4-0.1,0.7c0,0.2,0,0.5-0.1,0.7c0,0.2,0,0.5,0,0.7 c0,0.3,0,0.5,0,0.8c0,0.3,0,0.5,0,0.8c0,0.3,0,0.5,0,0.8c0,0.3,0,0.6,0,0.9c0,0.3,0,0.6,0,0.9c0,0.3,0,0.6,0,0.9 c0,0.3,0,0.6,0,0.9c0,0.3,0,0.6,0,0.9c0,0.3,0,0.6,0,0.9c0,0.3,0,0.6,0,1c0,0.2,0,0.4,0,0.6c-0.1-0.1-0.3-0.3-0.4-0.4 c-0.2-0.2-0.4-0.4-0.6-0.5c-0.2-0.2-0.4-0.4-0.6-0.5c-0.2-0.2-0.4-0.3-0.6-0.5c-0.2-0.2-0.4-0.3-0.5-0.5c-0.2-0.2-0.4-0.3-0.5-0.5 c-0.2-0.2-0.3-0.3-0.5-0.5c-0.2-0.2-0.3-0.3-0.5-0.5c-0.2-0.2-0.3-0.3-0.5-0.4c-0.2-0.1-0.3-0.3-0.5-0.4c-0.2-0.1-0.3-0.3-0.5-0.4 c-0.2-0.1-0.3-0.3-0.4-0.4c-0.1-0.1-0.3-0.2-0.4-0.4c-0.1-0.1-0.3-0.2-0.4-0.3c-0.1-0.1-0.3-0.2-0.4-0.3c-0.1-0.1-0.2-0.2-0.4-0.3 c-0.1-0.1-0.2-0.2-0.3-0.3c-0.1-0.1-0.2-0.2-0.3-0.2c-0.1-0.1-0.2-0.1-0.3-0.2c-0.1-0.1-0.2-0.1-0.3-0.2c-0.1-0.1-0.2-0.1-0.2-0.2 c-0.1-0.1-0.2-0.1-0.2-0.1c-0.1,0-0.1-0.1-0.2-0.1c-0.1,0-0.1-0.1-0.2-0.1c-0.1,0-0.1,0-0.1-0.1c0,0-0.1,0-0.1,0c0,0-0.1,0-0.1,0 c0,0,0,0-0.1,0c0,0,0,0,0,0.1c0,0,0,0.1,0,0.1c0,0,0,0.1,0,0.1c0,0,0,0.1,0.1,0.1c0,0.1,0.1,0.1,0.1,0.2c0,0.1,0.1,0.1,0.1,0.2 c0,0.1,0.1,0.1,0.1,0.2c0.1,0.1,0.1,0.2,0.2,0.2c0.1,0.1,0.1,0.2,0.2,0.3c0.1,0.1,0.1,0.2,0.2,0.3c0.1,0.1,0.2,0.2,0.2,0.3 c0.1,0.1,0.2,0.2,0.3,0.3c0.1,0.1,0.2,0.2,0.3,0.4c0.1,0.1,0.2,0.3,0.3,0.4c0.1,0.1,0.2,0.3,0.3,0.4c0.1,0.1,0.2,0.3,0.4,0.4 c0.1,0.1,0.3,0.3,0.4,0.4c0.1,0.2,0.3,0.3,0.4,0.5c0.1,0.2,0.3,0.3,0.4,0.5c0.1,0.2,0.3,0.3,0.4,0.5c0.2,0.2,0.3,0.3,0.5,0.5 s0.3,0.3,0.5,0.5c0.2,0.2,0.3,0.4,0.5,0.5c0.2,0.2,0.3,0.4,0.5,0.5c0.2,0.2,0.3,0.4,0.5,0.6c0.2,0.2,0.4,0.4,0.5,0.6 c0.2,0.2,0.4,0.4,0.5,0.6c0.1,0.1,0.3,0.3,0.4,0.4c-0.2,0-0.4,0-0.6,0c-0.3,0-0.6,0-1,0c-0.3,0-0.6,0-0.9,0c-0.3,0-0.6,0-0.9,0 c-0.3,0-0.6,0-0.9,0c-0.3,0-0.6,0-0.9,0c-0.3,0-0.6,0-0.9,0c-0.3,0-0.6,0-0.9,0c-0.3,0-0.6,0-0.8,0c-0.3,0-0.5,0-0.8,0 c-0.3,0-0.5,0-0.8,0c-0.3,0-0.5,0-0.7,0c-0.2,0-0.5,0-0.7,0.1c-0.2,0-0.5,0-0.7,0.1c-0.2,0-0.4,0-0.6,0.1c-0.2,0-0.4,0-0.6,0.1 c-0.2,0-0.4,0-0.6,0.1c-0.2,0-0.4,0-0.5,0.1c-0.2,0-0.3,0-0.5,0.1c-0.2,0-0.3,0-0.4,0.1c-0.1,0-0.3,0-0.4,0.1 c-0.1,0-0.2,0-0.4,0.1c-0.1,0-0.2,0-0.3,0.1c-0.1,0-0.2,0-0.3,0.1c-0.1,0-0.2,0-0.2,0.1c-0.1,0-0.1,0-0.2,0.1c0,0-0.1,0-0.1,0.1 c0,0-0.1,0.1-0.1,0.1c0,0,0,0.1,0,0.1c0,0,0,0.1,0,0.1c0,0,0,0.1,0.1,0.1c0,0,0.1,0.1,0.1,0.1c0,0,0.1,0,0.2,0.1 c0.1,0,0.1,0,0.2,0.1c0.1,0,0.2,0,0.3,0.1c0.1,0,0.2,0,0.3,0.1c0.1,0,0.2,0,0.4,0.1c0.1,0,0.3,0,0.4,0.1s0.3,0,0.4,0.1 c0.2,0,0.3,0,0.5,0.1c0.2,0,0.3,0,0.5,0.1c0.2,0,0.4,0,0.6,0.1c0.2,0,0.4,0,0.6,0.1c0.2,0,0.4,0,0.6,0.1c0.2,0,0.4,0,0.7,0.1 c0.2,0,0.5,0,0.7,0.1c0.2,0,0.5,0,0.7,0c0.3,0,0.5,0,0.8,0c0.3,0,0.5,0,0.8,0c0.3,0,0.5,0,0.8,0c0.3,0,0.6,0,0.9,0 c0.3,0,0.6,0,0.9,0c0.3,0,0.6,0,0.9,0c0.3,0,0.6,0,0.9,0c0.3,0,0.6,0,0.9,0c0.3,0,0.6,0,0.9,0c0.3,0,0.6,0,1,0c0.2,0,0.4,0,0.6,0 c-0.1,0.1-0.3,0.3-0.4,0.4c-0.2,0.2-0.4,0.4-0.5,0.6c-0.2,0.2-0.4,0.4-0.5,0.6c-0.2,0.2-0.3,0.4-0.5,0.6c-0.2,0.2-0.3,0.4-0.5,0.5 c-0.2,0.2-0.3,0.4-0.5,0.5c-0.2,0.2-0.3,0.3-0.5,0.5c-0.2,0.2-0.3,0.3-0.5,0.5c-0.2,0.2-0.3,0.3-0.4,0.5c-0.1,0.2-0.3,0.3-0.4,0.5 c-0.1,0.2-0.3,0.3-0.4,0.5c-0.1,0.2-0.3,0.3-0.4,0.4c-0.1,0.1-0.2,0.3-0.4,0.4c-0.1,0.1-0.2,0.3-0.3,0.4c-0.1,0.1-0.2,0.3-0.3,0.4 c-0.1,0.1-0.2,0.2-0.3,0.4c-0.1,0.1-0.2,0.2-0.3,0.3c-0.1,0.1-0.2,0.2-0.2,0.3c-0.1,0.1-0.2,0.2-0.2,0.3c-0.1,0.1-0.1,0.2-0.2,0.3 c-0.1,0.1-0.1,0.2-0.2,0.2c-0.1,0.1-0.1,0.2-0.1,0.2c0,0.1-0.1,0.1-0.1,0.2c0,0.1-0.1,0.1-0.1,0.2c0,0.1,0,0.1-0.1,0.1 c0,0,0,0.1,0,0.1c0,0,0,0.1,0,0.1c0,0,0,0,0,0.1c0,0,0,0,0.1,0c0,0,0.1,0,0.1,0c0,0,0.1,0,0.1,0c0,0,0.1,0,0.1-0.1 c0.1,0,0.1-0.1,0.2-0.1c0.1,0,0.1-0.1,0.2-0.1c0.1,0,0.1-0.1,0.2-0.1c0.1-0.1,0.2-0.1,0.2-0.2c0.1-0.1,0.2-0.1,0.3-0.2 c0.1-0.1,0.2-0.1,0.3-0.2c0.1-0.1,0.2-0.2,0.3-0.2c0.1-0.1,0.2-0.2,0.3-0.3c0.1-0.1,0.2-0.2,0.4-0.3c0.1-0.1,0.3-0.2,0.4-0.3 c0.1-0.1,0.3-0.2,0.4-0.3c0.1-0.1,0.3-0.2,0.4-0.4c0.1-0.1,0.3-0.3,0.4-0.4c0.2-0.1,0.3-0.3,0.5-0.4c0.2-0.1,0.3-0.3,0.5-0.4 c0.2-0.1,0.3-0.3,0.5-0.4c0.2-0.2,0.3-0.3,0.5-0.5c0.2-0.2,0.3-0.3,0.5-0.5c0.2-0.2,0.4-0.3,0.5-0.5c0.2-0.2,0.4-0.3,0.5-0.5 c0.2-0.2,0.4-0.3,0.6-0.5c0.2-0.2,0.4-0.4,0.6-0.5c0.2-0.2,0.4-0.4,0.6-0.5c0.1-0.1,0.3-0.3,0.4-0.4c0,0.2,0,0.4,0,0.6 c0,0.3,0,0.6,0,1c0,0.3,0,0.6,0,0.9c0,0.3,0,0.6,0,0.9c0,0.3,0,0.6,0,0.9c0,0.3,0,0.6,0,0.9c0,0.3,0,0.6,0,0.9c0,0.3,0,0.6,0,0.9 c0,0.3,0,0.6,0,0.8c0,0.3,0,0.5,0,0.8c0,0.3,0,0.5,0,0.8c0,0.3,0,0.5,0,0.7c0,0.2,0,0.5,0.1,0.7c0,0.2,0,0.5,0.1,0.7 c0,0.2,0,0.4,0.1,0.6c0,0.2,0,0.4,0.1,0.6c0,0.2,0,0.4,0.1,0.6c0,0.2,0,0.4,0.1,0.5c0,0.2,0,0.3,0.1,0.5s0,0.3,0.1,0.4 c0,0.1,0,0.3,0.1,0.4c0,0.1,0,0.2,0.1,0.4s0,0.2,0.1,0.3c0,0.1,0,0.2,0.1,0.3c0,0.1,0,0.2,0.1,0.2c0,0.1,0,0.1,0.1,0.2 c0,0,0,0.1,0.1,0.1c0,0,0.1,0.1,0.1,0.1c0,0,0.1,0,0.1,0c0,0,0.1,0,0.1,0c0,0,0.1,0,0.1-0.1c0,0,0.1-0.1,0.1-0.1 c0,0,0-0.1,0.1-0.2c0-0.1,0-0.1,0.1-0.2c0-0.1,0-0.2,0.1-0.3c0-0.1,0-0.2,0.1-0.3c0-0.1,0-0.2,0.1-0.4c0-0.1,0-0.3,0.1-0.4 c0-0.1,0-0.3,0.1-0.4c0-0.2,0-0.3,0.1-0.5c0-0.2,0-0.3,0.1-0.5c0-0.2,0-0.4,0.1-0.6c0-0.2,0-0.4,0.1-0.6c0-0.2,0-0.4,0.1-0.6 c0-0.2,0-0.4,0.1-0.7c0-0.2,0-0.5,0.1-0.7c0-0.2,0-0.5,0-0.7c0-0.3,0-0.5,0-0.8c0-0.3,0-0.5,0-0.8c0-0.3,0-0.5,0-0.8 c0-0.3,0-0.6,0-0.9c0-0.3,0-0.6,0-0.9c0-0.3,0-0.6,0-0.9c0-0.3,0-0.6,0-0.9c0-0.3,0-0.6,0-0.9c0-0.3,0-0.6,0-0.9c0-0.3,0-0.6,0-1 c0-0.2,0-0.4,0-0.6c0.1,0.1,0.3,0.3,0.4,0.4c0.2,0.2,0.4,0.4,0.6,0.5c0.2,0.2,0.4,0.4,0.6,0.5c0.2,0.2,0.4,0.3,0.6,0.5 c0.2,0.2,0.4,0.3,0.5,0.5c0.2,0.2,0.4,0.3,0.5,0.5c0.2,0.2,0.3,0.3,0.5,0.5c0.2,0.2,0.3,0.3,0.5,0.5c0.2,0.2,0.3,0.3,0.5,0.4 c0.2,0.1,0.3,0.3,0.5,0.4c0.2,0.1,0.3,0.3,0.5,0.4c0.2,0.1,0.3,0.3,0.4,0.4c0.1,0.1,0.3,0.2,0.4,0.4c0.1,0.1,0.3,0.2,0.4,0.3 c0.1,0.1,0.3,0.2,0.4,0.3c0.1,0.1,0.2,0.2,0.4,0.3c0.1,0.1,0.2,0.2,0.3,0.3c0.1,0.1,0.2,0.2,0.3,0.2c0.1,0.1,0.2,0.1,0.3,0.2 c0.1,0.1,0.2,0.1,0.3,0.2c0.1,0.1,0.2,0.1,0.2,0.2c0.1,0.1,0.2,0.1,0.2,0.1c0.1,0,0.1,0.1,0.2,0.1c0.1,0,0.1,0.1,0.2,0.1 c0.1,0,0.1,0,0.1,0.1c0,0,0.1,0,0.1,0c0,0,0.1,0,0.1,0c0,0,0,0,0.1,0c0,0,0,0,0-0.1c0,0,0-0.1,0-0.1c0,0,0-0.1,0-0.1 c0,0,0-0.1-0.1-0.1c0-0.1-0.1-0.1-0.1-0.2c0-0.1-0.1-0.1-0.1-0.2c0-0.1-0.1-0.1-0.1-0.2c-0.1-0.1-0.1-0.2-0.2-0.2 c-0.1-0.1-0.1-0.2-0.2-0.3c-0.1-0.1-0.1-0.2-0.2-0.3c-0.1-0.1-0.2-0.2-0.2-0.3c-0.1-0.1-0.2-0.2-0.3-0.3c-0.1-0.1-0.2-0.2-0.3-0.4 c-0.1-0.1-0.2-0.3-0.3-0.4c-0.1-0.1-0.2-0.3-0.3-0.4c-0.1-0.1-0.2-0.3-0.4-0.4c-0.1-0.1-0.3-0.3-0.4-0.4c-0.1-0.2-0.3-0.3-0.4-0.5 c-0.1-0.2-0.3-0.3-0.4-0.5c-0.1-0.2-0.3-0.3-0.4-0.5c-0.2-0.2-0.3-0.3-0.5-0.5c-0.2-0.2-0.3-0.3-0.5-0.5c-0.2-0.2-0.3-0.4-0.5-0.5 c-0.2-0.2-0.3-0.4-0.5-0.5c-0.2-0.2-0.3-0.4-0.5-0.6c-0.2-0.2-0.4-0.4-0.5-0.6c-0.2-0.2-0.4-0.4-0.5-0.6c-0.1-0.1-0.3-0.3-0.4-0.4 c0.2,0,0.4,0,0.6,0c0.3,0,0.6,0,1,0c0.3,0,0.6,0,0.9,0c0.3,0,0.6,0,0.9,0c0.3,0,0.6,0,0.9,0c0.3,0,0.6,0,0.9,0c0.3,0,0.6,0,0.9,0 c0.3,0,0.6,0,0.9,0c0.3,0,0.6,0,0.8,0c0.3,0,0.5,0,0.8,0c0.3,0,0.5,0,0.8,0c0.3,0,0.5,0,0.7,0c0.2,0,0.5,0,0.7-0.1 c0.2,0,0.5,0,0.7-0.1c0.2,0,0.4,0,0.6-0.1c0.2,0,0.4,0,0.6-0.1c0.2,0,0.4,0,0.6-0.1c0.2,0,0.4,0,0.5-0.1c0.2,0,0.3,0,0.5-0.1 c0.2,0,0.3,0,0.4-0.1c0.1,0,0.3,0,0.4-0.1c0.1,0,0.2,0,0.4-0.1c0.1,0,0.2,0,0.3-0.1c0.1,0,0.2,0,0.3-0.1c0.1,0,0.2,0,0.2-0.1 c0.1,0,0.1,0,0.2-0.1c0,0,0.1-0.1,0.1-0.1c0,0,0.1-0.1,0.1-0.1C599,595.8,599,595.7,599,595.6C599,595.7,599,595.7,599,595.6z" fill="#171717"/></g><g><g><g id="change1_11"><path d="M255.4,637.9c-0.1,7.8-0.3,7.9-8.1,8.2c7.8,0.1,7.9,0.3,8.2,8.1c0.1-7.8,0.3-7.9,8.1-8.2 C255.8,645.9,255.7,645.7,255.4,637.9" fill="#171717"/></g></g></g><g id="change1_37"><path d="M235.6 100.6L264.5 94.9 235.6 88.7 244.7 75.1 230.9 84.2 225 54.7 219.5 84.2 205.6 75.2 214.1 89.4 185.8 94.3 213.6 100.2 205.5 113.8 219.5 104.9 225.4 134.2 230.9 105.7 245.4 114.4z" fill="#171717"/></g><g id="change1_3"><path d="M544.4 636.4L568.3 631.6 544.4 626.5 551.9 615.2 540.5 622.8 535.6 598.3 531 622.8 519.5 615.3 526.5 627.1 503.1 631.2 526.1 636 519.4 647.3 531 640 535.9 664.2 540.5 640.6 552.5 647.8z" fill="#171717"/></g><g id="change1_17"><path d="M507.3 661.1L512.6 660 507.3 658.9 508.9 656.3 506.4 658 505.3 652.5 504.3 658 501.7 656.4 503.3 659 498 659.9 503.2 661 501.7 663.5 504.3 661.9 505.4 667.3 506.4 662 509.1 663.6z" fill="#171717"/></g><g id="change1_36"><path d="M385.4 655.2L392.7 653.8 385.4 652.2 387.7 648.8 384.2 651.1 382.7 643.6 381.3 651.1 377.8 648.8 379.9 652.4 372.8 653.6 379.8 655.1 377.8 658.6 381.3 656.3 382.8 663.7 384.2 656.5 387.9 658.7z" fill="#171717"/></g><g id="change3_22"><path d="M502.4,611.8l3.4-5.3l6.1,1.6l-4-4.9l3.4-5.3l-5.9,2.3l-4-4.8l0.4,6.3l-5.8,2.3l6.1,1.6L502.4,611.8z" fill="#ffffff"/></g><g id="change3_2"><path d="M651,494.6l3.8-5.9l6.8,1.7l-4.4-5.4l3.8-5.9l-6.5,2.5l-4.4-5.4l0.4,7l-6.5,2.6l6.8,1.8L651,494.6z" fill="#ffffff"/></g><g id="change3_29"><path d="M583.4,637.6l2.8-4.3l5,1.3l-3.3-4l2.8-4.3l-4.8,1.9l-3.3-4l0.3,5.1l-4.8,1.9l5,1.3L583.4,637.6z" fill="#ffffff"/></g><g id="change3_30"><path d="M370.8,703.2l3.7-3.4l4.4,2.5l-2.1-4.6l3.7-3.4l-5,0.5l-2.1-4.6l-1,4.9l-5,0.6l4.4,2.5L370.8,703.2z" fill="#ffffff"/></g><g id="change3_20"><path d="M606,603l1.1-5.1l-4.6-2.6l5.2-0.6l1.1-5.1l2.2,4.8l5.2-0.6l-3.9,3.5l2.2,4.8l-4.6-2.6L606,603z M605.5,595.8 l2.7,1.5l-0.6,3l2.3-2.1l2.7,1.5l-1.3-2.8l2.3-2.1l-3,0.3l-1.3-2.8l-0.6,3L605.5,595.8z" fill="#ffffff"/></g><g id="change3_9"><path d="M429.9,696.7l3.7-3.4l4.4,2.5l-2.1-4.6l3.7-3.4l-5,0.5l-2.1-4.6l-1,4.9l-5,0.6l4.4,2.5L429.9,696.7z" fill="#ffffff"/></g><g id="change3_17"><path d="M312.2,680.3l1.2-4.9l5-0.3l-4.2-2.7l1.2-4.9l-3.9,3.2l-4.3-2.7l1.9,4.7l-3.9,3.2l5-0.3L312.2,680.3z" fill="#ffffff"/></g><g id="change3_10"><path d="M282.8,665.9l-5.1-10.4l-11.5,1.6l8.3-8.1l-5.1-10.4l10.3,5.4l8.3-8.1l-2,11.4l10.3,5.4l-11.5,1.7 L282.8,665.9z M278.3,654.3l4,8l1.5-8.8l8.9-1.3l-7.9-4.2l1.5-8.8l-6.4,6.2l-7.9-4.2l3.9,8l-6.4,6.2L278.3,654.3z" fill="#ffffff"/></g><g id="change3_31"><path d="M105.9,204.6l-5.1-10.4l-11.5,1.6l8.3-8.1l-5.1-10.4l10.3,5.4l8.3-8.1l-2,11.4l10.3,5.4l-11.5,1.7 L105.9,204.6z M101.4,193l4,8l1.5-8.8l8.9-1.3l-7.9-4.2l1.5-8.8l-6.4,6.2L95,180l3.9,8l-6.4,6.2L101.4,193z" fill="#ffffff"/></g><g id="change3_5"><path d="M72.7,257.6l-1.7-6.5l5.7-3.7l-6.8-0.4l-1.7-6.5l-2.5,6.3l-6.8-0.4l5.2,4.3l-2.4,6.3l5.7-3.7L72.7,257.6z" fill="#ffffff"/></g><g id="change3_35"><path d="M139.5,174.4l0-5l4.8-1.5l-4.8-1.6l0-5l-3,4l-4.8-1.6l2.9,4.1l-3,4.1l4.8-1.5L139.5,174.4z" fill="#ffffff"/></g><g id="change3_28"><path d="M467.1,691.5l-4.2-12.4l-13.1,0.1l10.5-7.8l-4.1-12.4l10.6,7.6l10.5-7.7l-3.9,12.5l10.6,7.6l-13.1,0.1 L467.1,691.5z M463.8,678l3.3,9.9l3.2-9.9l10.4-0.1l-8.5-6.1l3.1-9.9l-8.4,6.2l-8.5-6l3.3,9.9l-8.4,6.2L463.8,678z" fill="#ffffff"/></g><g><g><g id="change3_14"><path d="M606.8,564.3l7.5-5.4l7.4,5.4l-2.8-8.8l7.5-5.4l-9.2-0.1l-2.8-8.8l-2.9,8.7l-9.2,0l7.4,5.5L606.8,564.3z" fill="#ffffff"/></g></g></g><g id="change3_33"><path d="M617.8,526.2l1.7-12.2l-11-5.4l12.1-2.1l1.8-12.2l5.8,10.9l12.1-2.1l-8.6,8.9l5.7,10.9l-11.1-5.4L617.8,526.2 z M612.1,509.1l8.7,4.3l-1.4,9.6l6.8-6.9l8.7,4.2l-4.5-8.6l6.7-6.9l-9.5,1.6l-4.5-8.5l-1.4,9.6L612.1,509.1z" fill="#ffffff"/></g><g id="change3_23"><path d="M433.3,97.7l4,4.1l-2.6,5.1l5.1-2.6l4.1,4.1l-0.9-5.7l5.1-2.6l-5.7-0.9l-0.9-5.7l-2.6,5.1L433.3,97.7z" fill="#ffffff"/></g><g><g><g id="change3_8"><path d="M326.6,45.3l3.6,8.5l-6.9,6.1l9.2-0.8l3.6,8.4l2-9l9.2-0.9l-7.9-4.7l2-9l-6.9,6.1L326.6,45.3z" fill="#ffffff"/></g></g></g><g id="change3_18"><path d="M378.9,65.8l6,9.2l-6.8,8.6l10.6-2.9l6.1,9.2l0.5-11l10.6-2.9l-10.3-3.9l0.5-11l-6.9,8.6L378.9,65.8z" fill="#ffffff"/></g><g id="change3_15"><circle cx="656.1" cy="411" fill="#ffffff" r="2.1"/></g><g id="change3_25"><path d="M560.9,656.7c0,1.2-1,2.2-2.2,2.2c-1.2,0-2.2-1-2.2-2.2c0-1.2,1-2.2,2.2-2.2 C559.9,654.4,560.9,655.4,560.9,656.7z" fill="#ffffff"/></g><g id="change3_7"><path d="M182.8,127.7c-4.2,0-7.6-3.4-7.6-7.6c0-4.2,3.4-7.6,7.6-7.6c4.2,0,7.6,3.4,7.6,7.6 C190.3,124.3,186.9,127.7,182.8,127.7z M182.8,113.7c-3.6,0-6.5,2.9-6.5,6.5c0,3.6,2.9,6.5,6.5,6.5c3.6,0,6.5-2.9,6.5-6.5 C189.2,116.6,186.3,113.7,182.8,113.7z" fill="#ffffff"/></g><g id="change3_32"><path d="M610.5,582.1c-1.7,0-3-1.4-3-3c0-1.7,1.4-3,3-3c1.7,0,3,1.4,3,3C613.5,580.8,612.1,582.1,610.5,582.1z M610.5,577.2c-1,0-1.9,0.8-1.9,1.9c0,1,0.8,1.9,1.9,1.9s1.9-0.8,1.9-1.9C612.3,578.1,611.5,577.2,610.5,577.2z" fill="#ffffff"/></g><g id="change3_12"><path d="M349.4,74.5c-3.4,0-6.1-2.7-6.1-6.1c0-3.4,2.7-6.1,6.1-6.1c3.4,0,6.1,2.7,6.1,6.1 C355.5,71.8,352.8,74.5,349.4,74.5z M349.4,63.4c-2.7,0-5,2.2-5,5c0,2.7,2.2,5,5,5c2.7,0,5-2.2,5-5 C354.4,65.6,352.1,63.4,349.4,63.4z" fill="#ffffff"/></g><g id="change3_19"><path d="M164.7,108.4c-2,0-3.6-1.6-3.6-3.6c0-2,1.6-3.6,3.6-3.6s3.6,1.6,3.6,3.6C168.3,106.7,166.7,108.4,164.7,108.4 z M164.7,102.3c-1.3,0-2.4,1.1-2.4,2.4c0,1.3,1.1,2.4,2.4,2.4c1.3,0,2.4-1.1,2.4-2.4C167.1,103.4,166,102.3,164.7,102.3z" fill="#ffffff"/></g><g id="change3_34"><path d="M49.2,303.2c-1.6,0-2.9-1.3-2.9-2.9c0-1.6,1.3-2.9,2.9-2.9c1.6,0,2.9,1.3,2.9,2.9 C52.2,301.9,50.9,303.2,49.2,303.2z M49.2,298.4c-1,0-1.8,0.8-1.8,1.8c0,1,0.8,1.8,1.8,1.8c1,0,1.8-0.8,1.8-1.8 C51,299.2,50.2,298.4,49.2,298.4z" fill="#ffffff"/></g><g id="change3_24"><path d="M236.4,664.4c-4.3,0-7.7-3.5-7.7-7.7c0-4.3,3.5-7.7,7.7-7.7c4.3,0,7.7,3.5,7.7,7.7 C244.2,660.9,240.7,664.4,236.4,664.4z M236.4,650.1c-3.6,0-6.6,2.9-6.6,6.6c0,3.6,2.9,6.6,6.6,6.6c3.6,0,6.6-2.9,6.6-6.6 C243,653,240.1,650.1,236.4,650.1z" fill="#ffffff"/></g><g id="change3_3"><path d="M634.4,491.1C634.3,491.1,634.3,491.1,634.4,491.1c-1.1,0-2.1-0.4-2.8-1.2c-0.7-0.8-1.1-1.7-1.1-2.8 c0-1,0.4-2,1.2-2.7c0.8-0.7,1.8-1.1,2.8-1.1c1,0,2,0.4,2.7,1.2c0.7,0.8,1.1,1.7,1.1,2.8c0,1-0.4,2-1.2,2.7 C636.3,490.8,635.4,491.1,634.4,491.1z M634.4,484.5c-0.7,0-1.4,0.3-1.9,0.8c-1.1,1.1-1.1,2.8-0.1,3.9c0.5,0.5,1.2,0.8,1.9,0.8 c0.7,0,1.4-0.3,2-0.8l0,0c1.1-1.1,1.1-2.8,0.1-3.9C635.8,484.8,635.2,484.5,634.4,484.5C634.4,484.5,634.4,484.5,634.4,484.5z" fill="#ffffff"/></g><g id="change2_3"><path d="M275,670.4c0,2.9-2.3,5.2-5.2,5.2s-5.2-2.3-5.2-5.2c0-2.9,2.3-5.2,5.2-5.2S275,667.5,275,670.4z"/></g><g id="change3_13"><path d="M265.1,68.9c-2.1,0-3.8-1.7-3.8-3.8c0-2.1,1.7-3.8,3.8-3.8c2.1,0,3.8,1.7,3.8,3.8 C268.9,67.2,267.2,68.9,265.1,68.9z M265.1,62.5c-1.5,0-2.7,1.2-2.7,2.7c0,1.5,1.2,2.7,2.7,2.7s2.7-1.2,2.7-2.7 C267.8,63.6,266.6,62.5,265.1,62.5z" fill="#ffffff"/></g><g id="change3_16"><path d="M414.4,93.6c-2.1,0-3.8-1.7-3.8-3.8c0-2.1,1.7-3.8,3.8-3.8c2.1,0,3.8,1.7,3.8,3.8 C418.2,91.9,416.5,93.6,414.4,93.6z M414.4,87.2c-1.5,0-2.7,1.2-2.7,2.7c0,1.5,1.2,2.7,2.7,2.7c1.5,0,2.7-1.2,2.7-2.7 C417.1,88.4,415.9,87.2,414.4,87.2z" fill="#ffffff"/></g><g id="change3_27"><path d="M221.3,642.4c-2.1,0-3.8-1.7-3.8-3.8c0-2.1,1.7-3.8,3.8-3.8c2.1,0,3.8,1.7,3.8,3.8 C225.1,640.7,223.4,642.4,221.3,642.4z M221.3,635.9c-1.5,0-2.7,1.2-2.7,2.7c0,1.5,1.2,2.7,2.7,2.7s2.7-1.2,2.7-2.7 C223.9,637.1,222.7,635.9,221.3,635.9z" fill="#ffffff"/></g><g id="change3_4"><path d="M650.3,397.9c-2.1,0-3.8-1.7-3.8-3.8c0-2.1,1.7-3.8,3.8-3.8c2.1,0,3.8,1.7,3.8,3.8 C654.1,396.2,652.4,397.9,650.3,397.9z M650.3,391.5c-1.5,0-2.7,1.2-2.7,2.7c0,1.5,1.2,2.7,2.7,2.7c1.5,0,2.7-1.2,2.7-2.7 C652.9,392.7,651.7,391.5,650.3,391.5z" fill="#ffffff"/></g><g id="change1_29"><path d="M526.4,111.2c0,1-0.8,1.9-1.9,1.9c-1,0-1.9-0.8-1.9-1.9c0-1,0.8-1.9,1.9-1.9 C525.5,109.4,526.4,110.2,526.4,111.2z" fill="#171717"/></g><g id="change3_1"><path d="M598.2,542.4c-3.7,0-6.7-3-6.7-6.7c0-3.7,3-6.7,6.7-6.7c3.7,0,6.7,3,6.7,6.7 C604.8,539.5,601.8,542.4,598.2,542.4z M598.2,530.3c-3,0-5.5,2.5-5.5,5.5c0,3,2.5,5.5,5.5,5.5c3,0,5.5-2.5,5.5-5.5 C603.7,532.8,601.2,530.3,598.2,530.3z" fill="#ffffff"/></g><g id="change3_6"><path d="M490.1,647.9c-3,0-5.5-2.5-5.5-5.5c0-3,2.5-5.5,5.5-5.5c3,0,5.5,2.5,5.5,5.5 C495.6,645.4,493.1,647.9,490.1,647.9z M490.1,638c-2.4,0-4.4,2-4.4,4.4c0,2.4,2,4.4,4.4,4.4s4.4-2,4.4-4.4 C494.5,639.9,492.5,638,490.1,638z" fill="#ffffff"/></g><g id="change3_26"><circle cx="71.6" cy="276.2" fill="#ffffff" r="2.6"/></g></g></svg>